HIERARCHY
ROOT Hips
{
  OFFSET 5.72205e-005 65.662 3.42586
  CHANNELS 6 Xposition Yposition Zposition Zrotation Xrotation Yrotation
  JOINT Chest
  {
    OFFSET 0 8.7983 -4.7612
    CHANNELS 6 Xposition Yposition Zposition Zrotation Xrotation Yrotation
    JOINT Chest2
    {
      OFFSET 0 8.0291 0.4195
      CHANNELS 6 Xposition Yposition Zposition Zrotation Xrotation Yrotation
      JOINT Chest3
      {
        OFFSET 0 9.9351 -2.2114
        CHANNELS 6 Xposition Yposition Zposition Zrotation Xrotation Yrotation
        JOINT Neck
        {
          OFFSET 0 22.3885 -0.4656
          CHANNELS 6 Xposition Yposition Zposition Zrotation Xrotation Yrotation
          JOINT Head
          {
            OFFSET -0.0001 12.643 3.4389
            CHANNELS 6 Xposition Yposition Zposition Zrotation Xrotation Yrotation
            End Site
            {
              OFFSET 0.0001 17.6655 0.5274
            }
          }
        }
        JOINT LeftCollar
        {
          OFFSET 2.2603 21.606 7.4023
          CHANNELS 6 Xposition Yposition Zposition Zrotation Xrotation Yrotation
          JOINT LeftShoulder
          {
            OFFSET 13.5163 -1.1332 -5.0146
            CHANNELS 6 Xposition Yposition Zposition Zrotation Xrotation Yrotation
            JOINT LeftElbow
            {
              OFFSET -0.0995 -28.05 -0.2431
              CHANNELS 6 Xposition Yposition Zposition Zrotation Xrotation Yrotation
              JOINT LeftWrist
              {
                OFFSET 0.0679 -23.3996 -0.1402
                CHANNELS 6 Xposition Yposition Zposition Zrotation Xrotation Yrotation
                JOINT LeftFinger1
                {
                  OFFSET 0.7932 -9.069 2.5189
                  CHANNELS 6 Xposition Yposition Zposition Zrotation Xrotation Yrotation
                  JOINT LeftFinger11
                  {
                    OFFSET -0.8272 -3.3923 0.5977
                    CHANNELS 6 Xposition Yposition Zposition Zrotation Xrotation Yrotation
                    JOINT LeftFinger12
                    {
                      OFFSET -0.5649 -2.3158 0.4082
                      CHANNELS 6 Xposition Yposition Zposition Zrotation Xrotation Yrotation
                      End Site
                      {
                        OFFSET -0.4919 -1.6479 0.2673
                      }
                    }
                  }
                }
                JOINT LeftFinger2
                {
                  OFFSET 0.9159 -9.2044 0.2193
                  CHANNELS 6 Xposition Yposition Zposition Zrotation Xrotation Yrotation
                  JOINT LeftFinger21
                  {
                    OFFSET 0.0117 -4.1944 -0.0248
                    CHANNELS 6 Xposition Yposition Zposition Zrotation Xrotation Yrotation
                    JOINT LeftFinger22
                    {
                      OFFSET 0.0071 -2.3249 -0.0142
                      CHANNELS 6 Xposition Yposition Zposition Zrotation Xrotation Yrotation
                      End Site
                      {
                        OFFSET -0.1475 -2.0882 0.0028
                      }
                    }
                  }
                }
                JOINT LeftFinger3
                {
                  OFFSET 0.6113 -8.7231 -2.0637
                  CHANNELS 6 Xposition Yposition Zposition Zrotation Xrotation Yrotation
                  JOINT LeftFinger31
                  {
                    OFFSET -0.1927 -3.8059 -0.2383
                    CHANNELS 6 Xposition Yposition Zposition Zrotation Xrotation Yrotation
                    JOINT LeftFinger32
                    {
                      OFFSET -0.1091 -2.1688 -0.1362
                      CHANNELS 6 Xposition Yposition Zposition Zrotation Xrotation Yrotation
                      End Site
                      {
                        OFFSET -0.2358 -1.9176 -0.0906
                      }
                    }
                  }
                }
                JOINT LeftFinger4
                {
                  OFFSET -0.6151 -8.0947 -3.5641
                  CHANNELS 6 Xposition Yposition Zposition Zrotation Xrotation Yrotation
                  JOINT LeftFinger41
                  {
                    OFFSET -0.4882 -2.341 -0.6462
                    CHANNELS 6 Xposition Yposition Zposition Zrotation Xrotation Yrotation
                    JOINT LeftFinger42
                    {
                      OFFSET -0.3575 -1.7167 -0.4742
                      CHANNELS 6 Xposition Yposition Zposition Zrotation Xrotation Yrotation
                      End Site
                      {
                        OFFSET -0.4187 -1.5237 -0.3496
                      }
                    }
                  }
                }
                JOINT LeftFinger0
                {
                  OFFSET -1.42 -1.8761 1.4223
                  CHANNELS 6 Xposition Yposition Zposition Zrotation Xrotation Yrotation
                  JOINT LeftFinger01
                  {
                    OFFSET -1.1471 -3.4929 2.6334
                    CHANNELS 6 Xposition Yposition Zposition Zrotation Xrotation Yrotation
                    JOINT LeftFinger02
                    {
                      OFFSET -0.823 -2.3 1.6571
                      CHANNELS 6 Xposition Yposition Zposition Zrotation Xrotation Yrotation
                      End Site
                      {
                        OFFSET -0.5822 -1.6914 1.1582
                      }
                    }
                  }
                }
              }
            }
          }
        }
        JOINT RightCollar
        {
          OFFSET -2.2603 21.606 7.4023
          CHANNELS 6 Xposition Yposition Zposition Zrotation Xrotation Yrotation
          JOINT RightShoulder
          {
            OFFSET -13.5187 -1.1334 -5.0155
            CHANNELS 6 Xposition Yposition Zposition Zrotation Xrotation Yrotation
            JOINT RightElbow
            {
              OFFSET 0.0994 -28.0499 -0.2431
              CHANNELS 6 Xposition Yposition Zposition Zrotation Xrotation Yrotation
              JOINT RightWrist
              {
                OFFSET -0.0679 -23.3996 -0.1402
                CHANNELS 6 Xposition Yposition Zposition Zrotation Xrotation Yrotation
                JOINT RightFinger1
                {
                  OFFSET -0.7932 -9.0691 2.5189
                  CHANNELS 6 Xposition Yposition Zposition Zrotation Xrotation Yrotation
                  JOINT RightFinger11
                  {
                    OFFSET 0.8272 -3.3923 0.5977
                    CHANNELS 6 Xposition Yposition Zposition Zrotation Xrotation Yrotation
                    JOINT RightFinger12
                    {
                      OFFSET 0.565 -2.3158 0.4082
                      CHANNELS 6 Xposition Yposition Zposition Zrotation Xrotation Yrotation
                      End Site
                      {
                        OFFSET 0.4919 -1.6479 0.2673
                      }
                    }
                  }
                }
                JOINT RightFinger2
                {
                  OFFSET -0.916 -9.2044 0.2193
                  CHANNELS 6 Xposition Yposition Zposition Zrotation Xrotation Yrotation
                  JOINT RightFinger21
                  {
                    OFFSET -0.0117 -4.1944 -0.0248
                    CHANNELS 6 Xposition Yposition Zposition Zrotation Xrotation Yrotation
                    JOINT RightFinger22
                    {
                      OFFSET -0.0071 -2.3249 -0.0142
                      CHANNELS 6 Xposition Yposition Zposition Zrotation Xrotation Yrotation
                      End Site
                      {
                        OFFSET 0.1475 -2.0882 0.0028
                      }
                    }
                  }
                }
                JOINT RightFinger3
                {
                  OFFSET -0.6113 -8.7231 -2.0637
                  CHANNELS 6 Xposition Yposition Zposition Zrotation Xrotation Yrotation
                  JOINT RightFinger31
                  {
                    OFFSET 0.1927 -3.8059 -0.2383
                    CHANNELS 6 Xposition Yposition Zposition Zrotation Xrotation Yrotation
                    JOINT RightFinger32
                    {
                      OFFSET 0.1091 -2.1688 -0.1362
                      CHANNELS 6 Xposition Yposition Zposition Zrotation Xrotation Yrotation
                      End Site
                      {
                        OFFSET 0.2358 -1.9176 -0.0906
                      }
                    }
                  }
                }
                JOINT RightFinger4
                {
                  OFFSET 0.6151 -8.0947 -3.564
                  CHANNELS 6 Xposition Yposition Zposition Zrotation Xrotation Yrotation
                  JOINT RightFinger41
                  {
                    OFFSET 0.4882 -2.341 -0.6462
                    CHANNELS 6 Xposition Yposition Zposition Zrotation Xrotation Yrotation
                    JOINT RightFinger42
                    {
                      OFFSET 0.3574 -1.7166 -0.4742
                      CHANNELS 6 Xposition Yposition Zposition Zrotation Xrotation Yrotation
                      End Site
                      {
                        OFFSET 0.4187 -1.5237 -0.3496
                      }
                    }
                  }
                }
                JOINT RightFinger0
                {
                  OFFSET 1.4199 -1.8761 1.4221
                  CHANNELS 6 Xposition Yposition Zposition Zrotation Xrotation Yrotation
                  JOINT RightFinger01
                  {
                    OFFSET 1.1472 -3.4929 2.6336
                    CHANNELS 6 Xposition Yposition Zposition Zrotation Xrotation Yrotation
                    JOINT RightFinger02
                    {
                      OFFSET 0.8229 -2.3 1.6571
                      CHANNELS 6 Xposition Yposition Zposition Zrotation Xrotation Yrotation
                      End Site
                      {
                        OFFSET 0.5822 -1.6914 1.1582
                      }
                    }
                  }
                }
              }
            }
          }
        }
      }
    }
  }
  JOINT RightHip
  {
    OFFSET -9.412 3.9771 -0.7758
    CHANNELS 6 Xposition Yposition Zposition Zrotation Xrotation Yrotation
    JOINT RightKnee
    {
      OFFSET -0.7531 -40.938 0
      CHANNELS 6 Xposition Yposition Zposition Zrotation Xrotation Yrotation
      JOINT RightAnkle
      {
        OFFSET 0 -40.1986 0
        CHANNELS 6 Xposition Yposition Zposition Zrotation Xrotation Yrotation
        JOINT RightToe
        {
          OFFSET 0 -4.4182 9.239
          CHANNELS 6 Xposition Yposition Zposition Zrotation Xrotation Yrotation
          End Site
          {
            OFFSET 0 0 6.1981
          }
        }
      }
    }
  }
  JOINT LeftHip
  {
    OFFSET 9.4119 3.9773 -0.7758
    CHANNELS 6 Xposition Yposition Zposition Zrotation Xrotation Yrotation
    JOINT LeftKnee
    {
      OFFSET 0.7532 -40.9383 0
      CHANNELS 6 Xposition Yposition Zposition Zrotation Xrotation Yrotation
      JOINT LeftAnkle
      {
        OFFSET 0 -40.1986 0
        CHANNELS 6 Xposition Yposition Zposition Zrotation Xrotation Yrotation
        JOINT LeftToe
        {
          OFFSET 0 -4.4182 9.239
          CHANNELS 6 Xposition Yposition Zposition Zrotation Xrotation Yrotation
          End Site
          {
            OFFSET 0 0 6.1981
          }
        }
      }
    }
  }
}
MOTION
Frames:	4
Frame Time:	0.0333333
5.72205e-005 65.662 3.42586 0 0 -0 0 8.7983 -4.7612 0 0 -0 0 8.0291 0.4195 0 0 -0 0 9.9351 -2.2114 0 0 -0 0 22.3885 -0.4656 0 0 -0 -0.0001 12.643 3.4389 0 0 -0 2.2603 21.606 7.4023 0 0 -12.5014 13.5163 -1.1332 -5.0146 88.1196 14.2451 10.6914 -0.0995 -28.05 -0.2431 -0.00160068 -0.00239207 0.000740045 0.0679 -23.3996 -0.1402 -8.4365e-005 7.00714e-005 -9.52055e-007 0.7932 -9.069 2.5189 9.93923e-017 -1.98785e-016 -1.59028e-015 -0.8272 -3.3923 0.5977 9.93923e-017 -5.96354e-016 -1.59028e-015 -0.5649 -2.3158 0.4082 -9.93923e-017 -5.96354e-016 -1.59028e-015 0.9159 -9.2044 0.2193 9.93923e-017 -1.98785e-016 -1.59028e-015 0.0117 -4.1944 -0.0248 -0.0128176 0.00232552 8.52707e-005 0.0071 -2.3249 -0.0142 9.93923e-017 5.96354e-016 -0 0.6113 -8.7231 -2.0637 9.93923e-017 -1.98785e-016 -1.59028e-015 -0.1927 -3.8059 -0.2383 -0.0160551 0.00299681 0.000857156 -0.1091 -2.1688 -0.1362 -2.48481e-016 0 3.18055e-015 -0.6151 -8.0947 -3.5641 9.93923e-017 -1.98785e-016 -1.59028e-015 -0.4882 -2.341 -0.6462 -0.0125865 0.0031206 0.00282719 -0.3575 -1.7167 -0.4742 0 1.98785e-016 -0 -1.42 -1.8761 1.4223 9.93923e-017 -1.98785e-016 -1.59028e-015 -1.1471 -3.4929 2.6334 9.93923e-017 -5.96354e-016 -1.59028e-015 -0.823 -2.3 1.6571 -9.93923e-017 -5.96354e-016 -1.59028e-015 -2.2603 21.606 7.4023 -0.865644 0.16582 7.03859 -13.5187 -1.1334 -5.0155 -88.0329 10.2057 -10.5567 0.0994 -28.0499 -0.2431 0.0015593 -0.00248883 -0.000788628 -0.0679 -23.3996 -0.1402 7.87605e-005 4.10553e-005 1.24965e-005 -0.7932 -9.0691 2.5189 -3.97569e-016 -7.95139e-016 3.18055e-015 0.8272 -3.3923 0.5977 -1.98785e-016 -3.97569e-016 3.18055e-015 0.565 -2.3158 0.4082 -1.98785e-016 0 3.18055e-015 -0.916 -9.2044 0.2193 -3.97569e-016 -7.95139e-016 3.18055e-015 -0.0117 -4.1944 -0.0248 0.0129473 0.00231697 -8.70038e-005 -0.0071 -2.3249 -0.0142 9.93923e-017 -7.95139e-016 1.59028e-015 -0.6113 -8.7231 -2.0637 -3.97569e-016 -7.95139e-016 3.18055e-015 0.1927 -3.8059 -0.2383 0.0163314 0.00303369 -0.000872333 0.1091 -2.1688 -0.1362 3.97569e-016 7.95139e-016 -3.18055e-015 0.6151 -8.0947 -3.564 -3.97569e-016 -7.95139e-016 3.18055e-015 0.4882 -2.341 -0.6462 0.0145763 0.00367772 -0.00326275 0.3574 -1.7166 -0.4742 9.93923e-017 -3.97569e-016 -0 1.4199 -1.8761 1.4221 -3.97569e-016 -7.95139e-016 3.18055e-015 1.1472 -3.4929 2.6336 -1.98785e-016 -3.97569e-016 3.18055e-015 0.8229 -2.3 1.6571 -1.98785e-016 0 3.18055e-015 -9.412 3.9771 -0.7758 3.42482 1.32465 -0.0626183 -0.7531 -40.938 0 0.000117508 0.717283 0.000978199 0 -40.1986 0 -3.4257 -2.04197 -0.0604716 8.88178e-016 -4.4182 9.239 6.47761e-025 0 -0 9.4119 3.9773 -0.7758 -3.42483 1.34017 0.0627307 0.7532 -40.9383 -2.22045e-016 -0.000193936 0.682302 -0.0013703 -8.88179e-016 -40.1986 0 3.42574 -2.02253 0.0595886 -8.88178e-016 -4.4182 9.239 -8.45714e-024 0 -7.40531e-025 
-5.57617 11.4049 11.1147 -59.2287 -38.8878 110.357 1.77636e-015 8.7983 -4.7612 0.270734 -2.96833 -0.0886829 -8.88178e-016 8.0291 0.4195 0.537968 -5.93701 -0.163616 -8.88178e-016 9.9351 -2.2114 0.537969 -5.937 -0.16363 -1.77636e-015 22.3885 -0.4656 1.03009e-005 7.36565 -7.45519e-006 -0.0001 12.643 3.4389 2.49562e-006 -41.3307 -2.81497e-006 2.2603 21.606 7.4023 19.0633 -27.4435 -4.72137 13.5163 -1.1332 -5.0146 60.5208 -19.9955 24.9426 -0.0995 -28.05 -0.2431 50.886 -58.8986 64.2814 0.0679 -23.3996 -0.1402 -7.68956 17.948 8.8145 0.7932 -9.069 2.5189 -3.79756e-006 -6.2749e-007 -8.87979e-006 -0.8272 -3.3923 0.5977 -3.18055e-015 -3.18055e-015 -9.54166e-015 -0.5649 -2.3158 0.4082 -3.18055e-015 3.18055e-015 -9.54166e-015 0.9159 -9.2044 0.2193 -3.79756e-006 -6.2749e-007 -8.87979e-006 0.0117 -4.1944 -0.0248 -0.0127955 0.00232251 8.98161e-005 0.0071 -2.3249 -0.0142 3.18055e-015 6.36111e-015 -6.36111e-015 0.6113 -8.7231 -2.0637 -3.79756e-006 -6.2749e-007 -8.87979e-006 -0.1927 -3.8059 -0.2383 -0.0160163 0.00299737 0.000865675 -0.1091 -2.1688 -0.1362 5.29669e-031 -6.36111e-015 4.77083e-015 -0.6151 -8.0947 -3.5641 -3.79756e-006 -6.2749e-007 -8.87979e-006 -0.4882 -2.341 -0.6462 -0.0125427 0.00311626 0.00282124 -0.3575 -1.7167 -0.4742 1.39227e-006 -1.4016e-006 -5.79524e-007 -1.42 -1.8761 1.4223 -3.79756e-006 -6.2749e-007 -8.87979e-006 -1.1471 -3.4929 2.6334 -3.18055e-015 -3.18055e-015 -9.54166e-015 -0.823 -2.3 1.6571 -3.18055e-015 3.18055e-015 -9.54166e-015 -2.2603 21.606 7.4023 -20.1648 -27.2086 -0.835604 -13.5187 -1.1334 -5.0155 -59.0713 -23.2425 -22.2367 0.0994 -28.0499 -0.2431 -51.3377 -58.2997 -66.1353 -0.0679 -23.3996 -0.1402 7.33936 18.5063 -8.3111 -0.7932 -9.0691 2.5189 -7.71671e-006 -6.72883e-006 2.62988e-006 0.8272 -3.3923 0.5977 1.40192e-006 3.39865e-006 7.29911e-006 0.565 -2.3158 0.4082 4.51765e-006 1.83933e-006 3.69185e-006 -0.916 -9.2044 0.2193 -7.71671e-006 -6.72883e-006 2.62988e-006 -0.0117 -4.1944 -0.0248 0.0128887 0.0023127 -8.52529e-005 -0.0071 -2.3249 -0.0142 -3.18055e-015 0 3.18055e-015 -0.6113 -8.7231 -2.0637 -7.71671e-006 -6.72883e-006 2.62988e-006 0.1927 -3.8059 -0.2383 0.016306 0.00303686 -0.000868918 0.1091 -2.1688 -0.1362 -3.18055e-015 -3.18055e-015 3.18055e-015 0.6151 -8.0947 -3.564 -7.71671e-006 -6.72883e-006 2.62988e-006 0.4882 -2.341 -0.6462 0.0145696 0.00368512 -0.00325745 0.3574 -1.7166 -0.4742 -4.76923e-006 -1.5187e-005 4.4516e-006 1.4199 -1.8761 1.4221 -7.71671e-006 -6.72883e-006 2.62988e-006 1.1472 -3.4929 2.6336 1.40192e-006 3.39865e-006 7.29911e-006 0.8229 -2.3 1.6571 4.51765e-006 1.83933e-006 3.69185e-006 -9.412 3.9771 -0.7758 -1.37738 0.250934 -2.40632 -0.7531 -40.938 -3.55271e-015 -19.573 79.2104 18.0654 0 -40.1986 -1.42109e-014 -5.84171 34.1938 -3.78541 1.42109e-014 -4.4182 9.239 1.34537e-007 -9.9555e-008 2.74396e-006 9.4119 3.9773 -0.7758 2.79948 -1.26193 2.41521 0.7532 -40.9383 -3.55271e-015 16.6381 78.5297 -15.7391 0 -40.1986 -7.10543e-015 6.69852 33.9326 3.178 -3.55271e-015 -4.4182 9.239 4.25303e-007 1.23729e-007 -1.57874e-008 
1.99829 -9.83881 17.304 117.661 -75.3762 -63.373 -4.44089e-016 8.7983 -4.7612 0.382631 -4.27536 -0.148604 -2.22045e-016 8.0291 0.4195 0.757273 -8.55167 -0.269628 0 9.9351 -2.2114 0.757273 -8.55166 -0.26963 -8.88178e-016 22.3885 -0.4656 4.04476e-006 10.8431 -1.40992e-006 -0.0001 12.643 3.4389 8.4263e-007 -60.6913 1.85961e-006 2.2603 21.606 7.4023 30.8378 -39.4428 0.602716 13.5163 -1.1332 -5.0146 50.6134 -36.1749 32.1028 -0.0995 -28.05 -0.2431 84.9398 -82.8586 101.658 0.0679 -23.3996 -0.1402 -11.0481 26.0107 12.5816 0.7932 -9.06901 2.5189 3.18055e-015 -3.18055e-015 -3.97569e-015 -0.8272 -3.3923 0.5977 -7.68285e-007 1.03075e-006 -3.40282e-006 -0.5649 -2.3158 0.4082 -3.18055e-015 -3.18055e-015 3.97569e-016 0.9159 -9.20441 0.2193 3.18055e-015 -3.18055e-015 -3.97569e-015 0.0117 -4.1944 -0.0248 -0.0128217 0.0023329 9.61088e-005 0.0071 -2.3249 -0.0142 -4.33835e-006 -1.5722e-006 -6.73235e-006 0.6113 -8.7231 -2.0637 3.18055e-015 -3.18055e-015 -3.97569e-015 -0.1927 -3.8059 -0.2383 -0.0160214 0.00299404 0.00086188 -0.1091 -2.1688 -0.1362 3.18055e-015 -3.18055e-015 -2.38542e-015 -0.6151 -8.0947 -3.5641 3.18055e-015 -3.18055e-015 -3.97569e-015 -0.4882 -2.341 -0.6462 -0.0126333 0.00313887 0.00285168 -0.3575 -1.7167 -0.4742 3.18055e-015 -3.18055e-015 4.77083e-015 -1.42 -1.8761 1.4223 3.18055e-015 -3.18055e-015 -3.97569e-015 -1.1471 -3.4929 2.6334 -7.68285e-007 1.03075e-006 -3.40282e-006 -0.823 -2.3 1.6571 -3.18055e-015 -3.18055e-015 3.97569e-016 -2.2603 21.606 7.4023 -31.9896 -39.1886 -6.1718 -13.5187 -1.1334 -5.0155 -47.3906 -38.8085 -27.8104 0.0994 -28.0499 -0.2431 -85.8209 -82.1897 -103.569 -0.0679 -23.3996 -0.1402 10.4687 26.8135 -11.845 -0.7932 -9.0691 2.5189 1.27222e-014 1.59028e-015 -3.37934e-015 0.8272 -3.3923 0.5977 1.27222e-014 -1.98785e-015 -2.68359e-015 0.565 -2.3158 0.4082 -3.03456e-032 -7.95139e-016 -2.18663e-015 -0.916 -9.2044 0.2193 1.27222e-014 1.59028e-015 -3.37934e-015 -0.0117 -4.1944 -0.0248 0.0129734 0.00231798 -9.17858e-005 -0.0071 -2.3249 -0.0142 -7.26915e-031 6.75868e-015 6.16232e-015 -0.6113 -8.7231 -2.0637 1.27222e-014 1.59028e-015 -3.37934e-015 0.1927 -3.8059 -0.2383 0.0163222 0.0030206 -0.000868387 0.1091 -2.1688 -0.1362 -3.18055e-015 -5.96354e-016 -4.87022e-015 0.6151 -8.0947 -3.564 1.27222e-014 1.59028e-015 -3.37934e-015 0.4882 -2.341 -0.6462 0.0146211 0.0036818 -0.00326546 0.3574 -1.7166 -0.4742 -9.54166e-015 2.18663e-015 -1.39149e-015 1.4199 -1.8761 1.4221 1.27222e-014 1.59028e-015 -3.37934e-015 1.1472 -3.4929 2.6336 1.27222e-014 -1.98785e-015 -2.68359e-015 0.8229 -2.3 1.6571 -3.03456e-032 -7.95139e-016 -2.18663e-015 -9.412 3.9771 -0.7758 -3.21601 -0.355418 -4.41125 -0.7531 -40.938 0 -167.81 65.4825 163.667 -5.32907e-015 -40.1986 7.10543e-015 -2.86832 52.0355 -8.87321 0 -4.4182 9.239 2.26135e-007 5.33049e-007 1.64156e-006 9.4119 3.9773 -0.7758 5.28857 -2.65591 4.29231 0.7532 -40.9383 -1.77636e-015 167.195 66.5357 -164.008 -1.77636e-015 -40.1986 0 4.69408 51.7174 7.59332 8.88178e-016 -4.4182 9.239 4.12889e-007 -4.25358e-008 -9.74136e-008 
-0.0621178 -5.14318 16.9039 -90.3963 -89.7304 89.3514 0 8.7983 -4.7612 0.358741 -3.92172 -0.133888 6.93889e-018 8.0291 0.4195 0.710779 -7.84422 -0.243955 1.38778e-017 9.9351 -2.2114 0.71078 -7.84424 -0.243955 -5.55111e-017 22.3885 -0.4656 1.44792e-007 10.4323 -4.81568e-007 -0.0001 12.643 3.4389 -3.01459e-008 -58.083 -2.6351e-007 2.2603 21.606 7.4023 28.1713 -36.968 -0.514858 13.5163 -1.1332 -5.0146 52.6379 -32.5524 30.4019 -0.0995 -28.05 -0.2431 74.1306 -77.7796 90.2535 0.0679 -23.3996 -0.1402 -10.3105 24.22 11.7578 0.7932 -9.069 2.5189 1.58479e-006 1.52633e-007 8.20838e-008 -0.8272 -3.3923 0.5977 -2.31427e-006 -2.45534e-006 -3.09699e-006 -0.5649 -2.3158 0.4082 2.31427e-006 2.45534e-006 3.09699e-006 0.9159 -9.2044 0.2193 1.58479e-006 1.52633e-007 8.20838e-008 0.0117 -4.1944 -0.0248 -0.0128154 0.00233361 9.12965e-005 0.0071 -2.3249 -0.0142 -1.62979e-006 -1.35207e-006 -6.17153e-006 0.6113 -8.7231 -2.0637 1.58479e-006 1.52633e-007 8.20838e-008 -0.1927 -3.8059 -0.2383 -0.0160297 0.00300798 0.000856233 -0.1091 -2.1688 -0.1362 3.18055e-015 -1.39149e-014 1.98785e-015 -0.6151 -8.0947 -3.5641 1.58479e-006 1.52633e-007 8.20838e-008 -0.4882 -2.341 -0.6462 -0.0125178 0.00309791 0.00280196 -0.3575 -1.7167 -0.4742 -3.18055e-015 -1.19271e-015 -2.5842e-015 -1.42 -1.8761 1.4223 1.58479e-006 1.52633e-007 8.20838e-008 -1.1471 -3.4929 2.6334 -2.31427e-006 -2.45534e-006 -3.09699e-006 -0.823 -2.3 1.6571 2.31427e-006 2.45534e-006 3.09699e-006 -2.2603 21.606 7.4023 -29.3165 -36.7148 -5.05644 -13.5187 -1.1334 -5.0155 -49.8939 -35.3277 -26.5204 0.0994 -28.0499 -0.2431 -75.1171 -77.1217 -92.3836 -0.0679 -23.3996 -0.1402 9.78661 24.9689 -11.0744 -0.7932 -9.0691 2.5189 -6.36111e-015 -7.95139e-016 -2.18663e-015 0.8272 -3.3923 0.5977 2.87965e-006 3.39587e-007 1.86148e-006 0.565 -2.3158 0.4082 1.2377e-006 -2.34067e-006 6.25671e-006 -0.916 -9.2044 0.2193 -6.36111e-015 -7.95139e-016 -2.18663e-015 -0.0117 -4.1944 -0.0248 0.0129559 0.0023159 -8.57065e-005 -0.0071 -2.3249 -0.0142 3.75975e-006 4.70618e-007 5.06287e-006 -0.6113 -8.7231 -2.0637 -6.36111e-015 -7.95139e-016 -2.18663e-015 0.1927 -3.8059 -0.2383 0.0163115 0.00302249 -0.000867288 0.1091 -2.1688 -0.1362 -7.10087e-030 1.43125e-014 2.84262e-014 0.6151 -8.0947 -3.564 -6.36111e-015 -7.95139e-016 -2.18663e-015 0.4882 -2.341 -0.6462 0.0146286 0.00369586 -0.00327583 0.3574 -1.7166 -0.4742 -3.18055e-015 3.18055e-015 -2.98177e-015 1.4199 -1.8761 1.4221 -6.36111e-015 -7.95139e-016 -2.18663e-015 1.1472 -3.4929 2.6336 2.87965e-006 3.39587e-007 1.86148e-006 0.8229 -2.3 1.6571 1.2377e-006 -2.34067e-006 6.25671e-006 -9.412 3.9771 -0.7758 -2.82618 -0.218512 -3.8359 -0.7531 -40.938 0 -163.273 72.7884 159.878 0 -40.1986 -7.10543e-015 -4.03264 47.99 -7.28384 -8.88178e-016 -4.4182 9.239 -1.13873e-006 1.12872e-005 -3.94336e-007 9.4119 3.9773 -0.7758 4.75313 -2.33893 3.76365 0.7532 -40.9383 0 162.495 73.799 -159.967 8.88178e-016 -40.1986 0 5.56997 47.6729 6.21625 0 -4.4182 9.239 4.13197e-007 6.60459e-008 7.23021e-007 
